<?xml version="1.0" encoding="utf-8"?>
<!-- Generator: Adobe Illustrator 19.0.0, SVG Export Plug-In . SVG Version: 6.00 Build 0)  -->
<svg version="1.1" id="Layer_1" xmlns="http://www.w3.org/2000/svg" xmlns:xlink="http://www.w3.org/1999/xlink" x="0px" y="0px"
	 viewBox="0 0 120 120" style="enable-background:new 0 0 120 120;" xml:space="preserve">
<style type="text/css">
	.st0{fill:#EEEEEE;}
	.st1{fill:#37474F;}
	.st2{fill:#03B6D2;}
</style>
<g id="XMLID_57_">
	<circle id="XMLID_45_" class="st0" cx="60" cy="60" r="57.5"/>
	<g id="XMLID_18_">
		<g id="XMLID_37_">
			<path id="XMLID_53_" class="st1" d="M62.8,31.4c0-1-0.6-1.2-1.3-0.6l-3.9,3.6c-0.7,0.6-0.5,1.2,0.5,1.2h3c1,0,1.7-0.8,1.7-1.7
				V31.4z"/>
		</g>
		<g id="Layer_1_1_">
			<g id="XMLID_51_">
				<path id="XMLID_52_" class="st2" d="M39.1,51.5c0-1-0.6-1.2-1.3-0.6l-3.9,3.6c-0.7,0.6-0.5,1.2,0.5,1.2h3c1,0,1.7-0.8,1.7-1.7
					V51.5z"/>
			</g>
			<g id="XMLID_25_">
				<path id="XMLID_46_" class="st2" d="M43.4,49.2c-1,0-1.7,0.8-1.7,1.7v3c0,1,0,2.3,0,3s-0.6,1.3-1.3,1.3c-0.7,0-2.1,0-3,0h-3
					c-1,0-1.7,0.8-1.7,1.7v28.9c0,1,0.8,1.7,1.7,1.7h27.6c1,0,1.7-0.8,1.7-1.7V50.9c0-1-0.8-1.7-1.7-1.7H43.4z M57.2,81.5
					c0,0.7-0.8,1.3-1.7,1.3H40.8c-1,0-1.7-0.6-1.7-1.3s0.8-1.3,1.7-1.3h14.6C56.4,80.2,57.2,80.8,57.2,81.5z M57.2,75.1
					c0,0.7-0.8,1.3-1.7,1.3H40.8c-1,0-1.7-0.6-1.7-1.3c0-0.7,0.8-1.3,1.7-1.3h14.6C56.4,73.8,57.2,74.4,57.2,75.1z M57.2,68.6
					c0,0.7-0.8,1.3-1.7,1.3H40.8c-1,0-1.7-0.6-1.7-1.3c0-0.7,0.8-1.3,1.7-1.3h14.6C56.4,67.3,57.2,67.9,57.2,68.6z"/>
			</g>
		</g>
		<path id="XMLID_55_" class="st1" d="M85.6,29H67.1c-1,0-2.1,1-2.1,1.9v3c0,1,0,2.3,0,3c0,0.7-0.2,1.1-0.9,1.1s-2.1,0-3,0h-3
			c-1,0-2.1,1-2.1,2v7h6.8c0.8,0,1.4,0,1.9,0h14.4c1,0,1.7,0.3,1.7,1c0,0.7-0.8,1-1.7,1H66.4c0,0-0.4,1-0.4,1.1V54h13.2
			c1,0,1.7,0.3,1.7,1c0,0.7-0.8,1-1.7,1H66v4h13.2c1,0,1.7,0.8,1.7,1.5c0,0.7-0.8,1.5-1.7,1.5H66v8h19.6c1,0,1.4-1.2,1.4-2.2V30.9
			C87,30,86.6,29,85.6,29z"/>
	</g>
</g>
</svg>
