<?xml version="1.0" encoding="utf-8"?>
<!-- Generator: Adobe Illustrator 19.0.0, SVG Export Plug-In . SVG Version: 6.00 Build 0)  -->
<svg version="1.1" id="Layer_1" xmlns="http://www.w3.org/2000/svg" xmlns:xlink="http://www.w3.org/1999/xlink" x="0px" y="0px"
	 viewBox="0 0 120 120" style="enable-background:new 0 0 120 120;" xml:space="preserve">
<style type="text/css">
	.st0{fill:#EEEEEE;}
	.st1{fill:#89939A;}
	.st2{fill:#37474F;}
	.st3{fill:#03B6D2;}
</style>
<g id="XMLID_54_">
	<circle id="XMLID_2_" class="st0" cx="60" cy="60" r="57.5"/>
	<g id="XMLID_12_">
		<path id="XMLID_10_" class="st1" d="M58.8,50.8c-0.7,0.7-1.8,0.7-2.5,0L45.8,40.4c-0.7-0.7-0.7-1.8,0-2.5l4.2-4.2
			c0.7-0.7,1.8-0.7,2.5,0l3.7,3.7c0.7,0.7,1.8,0.7,2.5,0l13.3-13.3c0.7-0.7,1.8-0.7,2.5,0l4.2,4.2c0.7,0.7,0.7,1.8,0,2.5L58.8,50.8z
			"/>
		<path id="XMLID_31_" class="st2" d="M62.3,95.4c-0.5,0-1-0.2-1.4-0.5L60,94.2c0-0.1,0-0.1,0.1-0.2l1.5-4.5l0.5,0.4
			c0.1,0.1,0.2,0.1,0.3,0.2l0.5,0.4c0.2,0.1,0.3,0.3,0.5,0.4c0.3,0.2,0.5,0.4,0.5,0.4c1,0.8,1.2,2.2,0.4,3.2l-0.1,0.1
			C63.7,95.1,63,95.4,62.3,95.4z"/>
		<path id="XMLID_30_" class="st2" d="M69.3,92.7c-0.5,0-1-0.2-1.4-0.5c0,0-0.1-0.1-0.4-0.3l-0.1-0.1l0,0l-2.7-2.1
			c-0.2-0.2-0.5-0.4-0.7-0.5c-0.2-0.2-1.2-0.9-1.2-0.9L62,87.6c0-0.6-0.1-1.2-0.4-1.8c-0.4-0.9-1.2-1.6-2.2-1.9
			c-0.4-0.1-0.8-0.2-1.2-0.2c-0.3,0-0.7,0.1-1,0.1l-1.1-0.9c0-0.1-0.1-0.2-0.1-0.3c-0.4-0.9-1.2-1.6-2.2-1.9
			c-0.4-0.1-0.8-0.2-1.2-0.2c-1.1,0-2.1,0.5-2.8,1.2c-0.4-1-1.2-1.9-2.3-2.2c-0.4-0.1-0.8-0.2-1.2-0.2c-1.1,0-2.1,0.5-2.8,1.3
			c-0.4-1-1.2-1.8-2.3-2.2c-0.4-0.1-0.8-0.2-1.2-0.2c-1.6,0-2.9,1-3.5,2.4c-0.1-0.1-0.3-0.1-0.4-0.2L15.2,69
			c-0.1-0.1-0.2-0.1-0.2-0.3c0-0.1,0-0.2,0-0.3L23.4,53c0.1-0.2,0.3-0.3,0.5-0.3c0.1,0,0.1,0,0.2,0l17.1,8.9
			c0.2,0.1,0.5,0.1,0.8,0.1c0.2,0,0.4,0,0.6-0.1l9.6-3.2c0.2-0.1,0.5-0.1,0.8-0.1c0.1,0,0.3,0,0.4,0l0.7,0.1c0.1,0,0.1,0,0.1,0
			c0,0,0,0-0.1,0.1l-1.1,0.8l0,0.1c-1.4,1-4.9,3.7-6.5,4.8c-1.5,1-2.1,2.5-1.6,4.1c0.6,1.9,2.6,3.3,4.9,3.3c0.8,0,1.5-0.2,2.3-0.5
			c2-0.9,5-2.2,7.5-3.3c0,0,0,0,0,0c0,0,0.1,0,0.1,0l2.6-1.1l0.4-0.2l-0.1,0l0.1,0l0.1,0c0.1,0,0.2,0,0.2,0c0.2,0,0.4,0.1,0.5,0.2
			l3.8,2.9l16.7,12.9c0.5,0.4,0.8,0.9,0.9,1.5c0.1,0.6-0.1,1.2-0.5,1.7l-0.1,0.1c-0.4,0.6-1.1,0.9-1.8,0.9c-0.5,0-1-0.2-1.4-0.5
			l-4.6-3.5c-0.2-0.2-0.4-0.3-0.6-0.5c-0.7-0.5-1.4-1.1-2.1-1.6c0,0-0.2-0.2-0.3-0.2c-0.3-0.2-0.6-0.5-0.9-0.7l-0.3-0.2
			c-3.7-2.9-8.1-6.3-8.4-6.5c-0.2-0.1-0.4-0.2-0.6-0.2c-0.4,0-0.7,0.2-0.8,0.6c-0.1,0.4,0,0.8,0.4,1c0.4,0.3,4.5,3.5,8.2,6.3
			l0.3,0.2l2.7,2.1c0.7,0.5,1.3,1,1.8,1.4l0.4,0.3l0.6,0.5l0,0l0.1,0.1l0.5,0.4c1,0.8,1.2,2.2,0.4,3.2l0,0l0,0.1
			c-0.4,0.6-1.1,0.9-1.8,0.9c-0.5,0-1-0.2-1.4-0.5l-0.4-0.3c0,0-0.1-0.1-0.1-0.1c-0.1-0.1-0.1-0.1-0.2-0.2c0,0-1.1-0.8-1.4-1.1
			c-0.1-0.1-0.2-0.1-0.2-0.2l-0.5-0.4c-0.2-0.1-0.3-0.3-0.5-0.4c-0.1-0.1-0.2-0.2-0.4-0.3c-1.1-0.8-2.2-1.7-3.3-2.5
			c-2.2-1.7-4.5-3.5-6-4.6c-0.9-0.7-1.5-1.1-1.6-1.2c-0.2-0.1-0.4-0.2-0.6-0.2c-0.4,0-0.7,0.2-0.8,0.6c-0.1,0.4,0,0.7,0.4,1
			c0,0,8,6.2,8.3,6.4c0.2,0.2,0.4,0.3,0.6,0.4c0,0,0.5,0.4,0.7,0.5l1.1,0.8c0.1,0,0.1,0.1,0.2,0.1c0.1,0.1,0.1,0.1,0.2,0.1
			c0.1,0.1,0.2,0.2,0.3,0.2l0.1,0.1c0.1,0.1,0.2,0.2,0.3,0.2c0.3,0.2,0.4,0.3,0.4,0.3c0.5,0.4,0.8,0.9,0.9,1.5
			c0.1,0.6-0.1,1.2-0.5,1.7l0,0l0,0.1C70.7,92.4,70,92.7,69.3,92.7z"/>
		<path id="XMLID_29_" class="st3" d="M85.8,81.6c-0.1,0-0.3,0-0.4-0.1L64,64.8c-0.2-0.2-0.5-0.3-0.8-0.3c-0.2,0-0.3,0-0.5,0.1
			c0,0-7.3,3.2-11.4,5c-0.5,0.2-1.1,0.3-1.6,0.3c-1.7,0-3-1.1-3.3-2.2c-0.3-0.9,0.1-1.7,0.9-2.2c2.3-1.6,8.7-6.4,8.7-6.5
			c0.3-0.2,0.7-0.5,1.1-0.6l9.3-3.1c0.1,0,0.3-0.1,0.4-0.1c0.2,0,0.5,0,0.6,0.1l12,5.7c0.2,0.1,0.5,0.1,0.7,0.1c0.2,0,0.4,0,0.6-0.1
			l14.9-8.3c0,0,0.1,0,0.1,0c0.2,0,0.4,0.1,0.5,0.3l8.7,15.2c0.1,0.2,0.1,0.5-0.1,0.7L86.2,81.5C86.1,81.5,85.9,81.6,85.8,81.6z"/>
		<path id="XMLID_28_" class="st3" d="M56.5,95.2c-0.3,0-0.5,0-0.7-0.1c-0.6-0.2-1.1-0.6-1.4-1.2c-0.3-0.6-0.3-1.2-0.1-1.8l1.8-5.3
			c0.3-1,1.2-1.6,2.2-1.6c0.3,0,0.5,0,0.7,0.1c0.6,0.2,1.1,0.6,1.4,1.2c0.3,0.6,0.3,1.2,0.1,1.8l-1.8,5.3
			C58.4,94.6,57.5,95.2,56.5,95.2z"/>
		<path id="XMLID_27_" class="st3" d="M50.9,92.2c-0.3,0-0.5,0-0.7-0.1c-1.2-0.4-1.9-1.7-1.5-3l1.8-5.3c0.3-1,1.2-1.6,2.2-1.6
			c0.3,0,0.5,0,0.7,0.1c0.6,0.2,1.1,0.6,1.4,1.2c0.3,0.6,0.3,1.2,0.1,1.8l-1.8,5.3C52.8,91.5,51.9,92.2,50.9,92.2z"/>
		<path id="XMLID_26_" class="st3" d="M45.4,88.9c-0.3,0-0.5,0-0.7-0.1c-0.6-0.2-1.1-0.6-1.4-1.2c-0.3-0.6-0.3-1.2-0.1-1.8l1.1-3.2
			c0.3-1,1.2-1.6,2.2-1.6c0.3,0,0.5,0,0.7,0.1c1.2,0.4,1.9,1.7,1.5,3l-1.1,3.2C47.3,88.2,46.4,88.9,45.4,88.9z"/>
		<path id="XMLID_24_" class="st3" d="M39.8,85.8c-0.2,0-0.5,0-0.7-0.1c-1.2-0.4-1.9-1.7-1.5-3l0.4-1.2c0.3-1,1.2-1.6,2.2-1.6
			c0.3,0,0.5,0,0.7,0.1c1.2,0.4,1.9,1.7,1.5,3L42,84.2C41.7,85.1,40.8,85.8,39.8,85.8z"/>
	</g>
</g>
</svg>
