<?xml version="1.0" encoding="utf-8"?>
<!-- Generator: Adobe Illustrator 19.0.0, SVG Export Plug-In . SVG Version: 6.00 Build 0)  -->
<svg version="1.1" id="Layer_1" xmlns="http://www.w3.org/2000/svg" xmlns:xlink="http://www.w3.org/1999/xlink" x="0px" y="0px"
	 viewBox="0 0 120 120" style="enable-background:new 0 0 120 120;" xml:space="preserve">
<style type="text/css">
	.st0{fill:#EEEEEE;}
	.st1{fill:#37474F;}
	.st2{fill:#03B6D2;}
</style>
<g id="XMLID_56_">
	<circle id="XMLID_14_" class="st0" cx="60" cy="60" r="57.5"/>
	<g id="XMLID_7_">
		<g id="XMLID_16_">
			<path id="XMLID_48_" class="st1" d="M38,92.1c-1.1,0-2-0.9-2-2v-31c0-1.1,0.9-2,2-2h45c1.1,0,2,0.9,2,2v31c0,1.1-0.9,2-2,2H38z
				 M45.2,85.7c-0.8,0.8-0.5,1.4,0.6,1.4h27.7c1.1,0,1.4-0.6,0.6-1.4l-6.9-7c-0.8-0.8-2.1-0.8-2.9-0.1l-1.2,1
				c-0.8,0.7-2,1.6-2.6,1.9c0,0,0,0-0.5,0c-0.5,0-0.5,0-0.5,0c-0.6-0.4-1.8-1.2-2.6-1.9l-1.5-1.3c-0.8-0.7-2.2-0.6-2.9,0.1
				L45.2,85.7z M71.5,72.6c-0.8,0.7-0.9,2-0.1,2.7l7.2,7.4c0.8,0.8,1.4,0.5,1.4-0.6V67.2c0-1.1-0.7-1.4-1.5-0.7L71.5,72.6z M40,81.4
				c0,1.1,0.6,1.4,1.4,0.6l6.9-6.9c0.8-0.8,0.7-2-0.1-2.7l-6.7-5.8c-0.8-0.7-1.5-0.4-1.5,0.7V81.4z M58.5,74.3c0.8,0.7,2.2,0.7,3,0
				l12.6-10.9c0.8-0.7,0.6-1.3-0.5-1.3H46.6c-1.1,0-1.3,0.6-0.5,1.3L58.5,74.3z"/>
		</g>
		<path id="XMLID_17_" class="st2" d="M74.9,31.6c-0.8,0.8-2.2,0.9-3.1,0.3c0,0-6.1-4-10.8-4c-9.9,0-18,8.1-18,18
			c0,2.4,0.8,5.1,0.8,5.1c0.3,1.1,0.6,2,0.7,2.2s1,0.3,2.1,0.3l2.9,0c1.1,0,1.8-0.3,1.5-0.7s-0.8-1.6-1.2-2.6c0,0-0.9-2.1-0.9-4.3
			c0-6.6,5.4-12,12-12c3,0,6.6,2.3,6.6,2.3c0.9,0.6,1.1,1.7,0.3,2.5L66,40.6c-0.8,0.8-0.5,1.4,0.6,1.4H76c1.1,0,1-0.9,1-2v-9.6
			c0-1.1-0.1-1.4-0.9-0.6L74.9,31.6z"/>
	</g>
</g>
</svg>
