<?xml version="1.0" encoding="utf-8"?>
<!-- Generator: Adobe Illustrator 19.0.0, SVG Export Plug-In . SVG Version: 6.00 Build 0)  -->
<svg version="1.1" id="Layer_1" xmlns="http://www.w3.org/2000/svg" xmlns:xlink="http://www.w3.org/1999/xlink" x="0px" y="0px"
	 viewBox="0 0 120 120" style="enable-background:new 0 0 120 120;" xml:space="preserve">
<style type="text/css">
	.st0{fill:#EEEEEE;}
	.st1{fill:#03B6D2;}
	.st2{fill:#37474F;}
</style>
<g id="XMLID_61_">
	<circle id="XMLID_62_" class="st0" cx="60" cy="60" r="57.5"/>
	<g id="XMLID_19_">
		<g id="Layer_1_2_">
			<path id="XMLID_20_" class="st1" d="M89.8,41L64,47.4c-3-3.1-7.5-4.6-11.9-3.5C45.4,45.6,41.3,52.3,43,59s8.4,10.8,15.1,9.1
				c4.5-1.1,7.7-4.5,8.9-8.6l4.7-1.2l1.5-0.4l2.3-3.8l3.5,1.2l3.3-6.1l3.8,2.3l2.3-3.8l3.8,2.3l1.9-5.3L89.8,41z M54.6,60.9
				c-2.6,0.6-5-0.8-5.7-3.4c-0.6-2.6,0.8-5,3.4-5.7s5,0.8,5.7,3.4C58.7,57.8,57.2,60.3,54.6,60.9z"/>
		</g>
		<g id="XMLID_23_">
			<path id="XMLID_59_" class="st2" d="M20.1,70.9c-0.8,0-1.1-0.6-0.6-1.2l3.4-4.9c0.5-0.7,0.5-1.8,0-2.5l-3.2-4.5
				c-0.5-0.7-0.2-1.2,0.6-1.2h1.6c0.8,0,1.9,0.6,2.3,1.3l0.9,1.4c0.4,0.7,1.2,0.7,1.7,0l1-1.4c0.5-0.7,1.5-1.2,2.3-1.2h1.4
				c0.8,0,1.1,0.5,0.6,1.2L29,62.2c-0.5,0.7-0.5,1.8,0,2.4l3.5,5c0.5,0.7,0.2,1.2-0.6,1.2h-1.6c-0.8,0-1.9-0.6-2.3-1.3l-1.2-1.9
				c-0.5-0.7-1.2-0.7-1.7,0l-1.3,1.9c-0.5,0.7-1.5,1.3-2.3,1.3H20.1z"/>
		</g>
		<path id="XMLID_58_" class="st2" d="M101,77.5c0,0.8-0.7,1.5-1.5,1.5h-80c-0.8,0-1.5-0.7-1.5-1.5l0,0c0-0.8,0.7-1.5,1.5-1.5h80
			C100.3,76,101,76.7,101,77.5L101,77.5z"/>
	</g>
</g>
</svg>
