<?xml version="1.0" encoding="utf-8"?>
<!-- Generator: Adobe Illustrator 16.0.0, SVG Export Plug-In . SVG Version: 6.00 Build 0)  -->
<!DOCTYPE svg PUBLIC "-//W3C//DTD SVG 1.1//EN" "http://www.w3.org/Graphics/SVG/1.1/DTD/svg11.dtd">
<svg version="1.1" id="Layer_1" xmlns="http://www.w3.org/2000/svg" xmlns:xlink="http://www.w3.org/1999/xlink" x="0px" y="0px"
	 width="578.617px" height="233.156px" viewBox="0 0 578.617 233.156" enable-background="new 0 0 578.617 233.156"
	 xml:space="preserve">
<g>
	<path fill="#FFFFFF" d="M44.842,61.614c0,1.79-0.701,3.288-2.08,4.463c-1.379,1.171-3.043,1.759-4.973,1.759H8.739
		c-1.939,0-3.599-0.588-4.973-1.759c-1.383-1.175-2.075-2.673-2.075-4.463V34.843c0-1.654,0.692-3.11,2.075-4.348
		c1.374-1.249,3.033-1.868,4.973-1.868h29.05c1.93,0,3.594,0.619,4.973,1.868c1.379,1.237,2.08,2.693,2.08,4.348V61.614z
		 M44.842,223.014c0,1.665-0.666,3.121-1.977,4.349c-1.315,1.249-2.938,1.872-4.868,1.872H8.739c-1.939,0-3.599-0.623-4.973-1.872
		c-1.383-1.228-2.075-2.684-2.075-4.349V90.238c0-1.665,0.692-3.105,2.075-4.354c1.374-1.243,3.033-1.868,4.973-1.868h29.258
		c1.93,0,3.553,0.625,4.868,1.868c1.311,1.248,1.977,2.688,1.977,4.354V223.014z"/>
	<path fill="#FFFFFF" d="M53.133,156.831c0-11.619,1.488-21.949,4.463-31.011c2.965-9.065,7.74-16.665,14.32-22.823
		c6.563-6.148,14.995-10.819,25.299-14.002c10.305-3.188,22.855-4.775,37.653-4.775c14.663,0,27.183,1.587,37.554,4.775
		c10.377,3.183,18.85,7.854,25.409,14.002c6.575,6.158,11.345,13.758,14.325,22.823c2.97,9.062,4.452,19.392,4.452,31.011
		c0,11.756-1.482,22.158-4.452,31.229c-2.98,9.051-7.75,16.665-14.325,22.813c-6.56,6.158-15.032,10.829-25.409,14.002
		c-10.371,3.194-22.891,4.775-37.554,4.775c-14.798,0-27.349-1.581-37.653-4.775c-10.304-3.173-18.735-7.844-25.299-14.002
		c-6.58-6.148-11.355-13.763-14.32-22.813C54.621,178.989,53.133,168.587,53.133,156.831 M173.047,157.872
		c0-5.95-0.588-11.381-1.764-16.291c-1.181-4.91-3.225-9.092-6.122-12.546c-2.902-3.459-6.819-6.153-11.719-8.094
		c-4.915-1.935-11.101-2.907-18.574-2.907c-7.464,0-13.664,0.973-18.563,2.907c-4.91,1.94-8.812,4.635-11.714,8.094
		c-2.913,3.454-4.921,7.636-6.023,12.546s-1.665,10.341-1.665,16.291s0.563,11.381,1.665,16.28c1.103,4.91,3.11,9.144,6.023,12.66
		c2.902,3.516,6.804,6.294,11.714,8.302c4.899,1.997,11.1,3.006,18.563,3.006c7.474,0,13.659-1.009,18.574-3.006
		c4.899-2.008,8.816-4.786,11.719-8.302c2.897-3.517,4.941-7.75,6.122-12.66C172.459,169.253,173.047,163.822,173.047,157.872"/>
	<path fill="#FFFFFF" d="M310.375,83.398c10.787,0,19.504,1.414,26.141,4.249c6.639,2.835,11.797,6.851,15.459,12.031
		c3.662,5.186,6.148,11.448,7.469,18.776c1.313,7.329,1.977,15.428,1.977,24.271v53.938v24.478v2.288
		c0,1.665-0.664,3.101-1.977,4.349c-1.32,1.249-2.934,1.873-4.867,1.873h-25.529c-1.936,0-3.557-0.624-4.869-1.873
		c-1.32-1.248-1.977-2.684-1.977-4.349v-2.288V150.61c0-4.286-0.238-8.301-0.727-12.036c-0.49-3.734-1.582-6.907-3.309-9.539
		c-1.738-2.632-4.328-4.702-7.791-6.221c-3.455-1.529-8.168-2.283-14.107-2.283c-6.912,0-12.441,0.754-16.592,2.283
		c-4.146,1.519-7.365,3.693-9.645,6.527c-2.288,2.835-3.807,6.195-4.566,10.065c-0.765,3.869-1.145,8.166-1.145,12.868v43.774v0.614
		v26.766c0,1.665-0.66,3.101-1.971,4.349c-1.311,1.249-2.934,1.873-4.869,1.873h-25.726c-1.94,0-3.563-0.624-4.874-1.873
		c-1.311-1.248-1.971-2.684-1.971-4.349v-8.509v-18.257v-80.076V89.827v-0.832c0.275-1.52,1.07-2.804,2.382-3.834
		c1.311-1.04,2.798-1.555,4.463-1.555h25.726c1.936,0,3.559,0.582,4.869,1.763c1.311,1.171,1.971,2.658,1.971,4.458v8.712
		c1.8-2.08,3.454-4.041,4.983-5.914c1.514-1.867,3.761-3.459,6.741-4.779c2.97-1.306,7.09-2.377,12.343-3.204
		C293.646,83.809,300.971,83.398,310.375,83.398"/>
	<path fill="#FFFFFF" d="M369.701,175.702c0-5.243,0.457-10.361,1.352-15.334c0.906-4.993,2.455-9.55,4.662-13.7
		c2.225-4.15,5.158-7.813,8.82-10.996c3.684-3.183,8.271-5.669,13.805-7.469c-4.701-1.795-8.541-4.047-11.516-6.741
		s-5.295-5.67-6.949-8.92c-1.664-3.246-2.768-6.741-3.309-10.481c-0.561-3.729-0.852-7.667-0.852-11.817
		c0-5.945,1.02-11.692,3.016-17.222c1.998-5.529,5.639-10.444,10.902-14.73c5.244-4.286,12.473-7.683,21.68-10.164
		c9.195-2.491,20.982-3.734,35.359-3.734c14.533,0,26.393,1.274,35.588,3.839s16.416,5.95,21.68,10.158
		c5.254,4.229,8.883,9.103,10.881,14.632c2.018,5.529,3.018,11.276,3.018,17.222c0,4.15-0.313,8.125-0.938,11.922
		c-0.623,3.813-1.768,7.375-3.432,10.688c-1.645,3.313-3.965,6.294-6.939,8.915c-2.975,2.632-6.814,4.775-11.516,6.435
		c5.67,1.8,10.371,4.286,14.105,7.469c3.746,3.184,6.742,6.846,9.029,10.996c2.27,4.15,3.871,8.707,4.775,13.7
		c0.885,4.973,1.342,10.091,1.342,15.334c0,7.479-1.289,14.502-3.848,21.065c-2.549,6.575-6.836,12.349-12.848,17.321
		c-6.023,4.982-14.002,8.894-23.979,11.724c-9.945,2.84-22.262,4.255-36.92,4.255s-26.891-1.415-36.723-4.255
		c-9.809-2.83-17.695-6.741-23.635-11.724c-5.961-4.973-10.205-10.746-12.764-17.321
		C370.992,190.204,369.701,183.182,369.701,175.702 M485.879,172.603c0-4.286-0.686-8.094-2.068-11.412
		c-1.385-3.318-3.631-6.148-6.742-8.51c-3.109-2.341-7.168-4.15-12.141-5.398c-4.973-1.238-11.068-1.853-18.256-1.853
		c-7.189,0-13.242,0.614-18.152,1.853c-4.91,1.248-8.885,3.058-11.922,5.398c-3.039,2.361-5.223,5.191-6.533,8.51
		s-1.977,7.126-1.977,11.412c0,4.14,0.666,7.927,1.977,11.297c1.311,3.402,3.494,6.263,6.533,8.613
		c3.037,2.362,7.012,4.151,11.922,5.389c4.91,1.249,10.963,1.873,18.152,1.873c14.387,0,24.52-2.413,30.396-7.262
		C482.945,187.676,485.879,181.039,485.879,172.603 M480.908,95.429c0-3.183-0.563-6.054-1.666-8.613
		c-1.102-2.554-2.934-4.733-5.492-6.527c-2.559-1.806-6.055-3.188-10.475-4.161c-4.422-0.963-9.957-1.446-16.604-1.446
		c-6.637,0-12.131,0.483-16.488,1.446c-4.35,0.973-7.844,2.355-10.477,4.161c-2.631,1.794-4.463,3.974-5.502,6.527
		c-1.031,2.56-1.551,5.431-1.551,8.613c0,3.318,0.52,6.263,1.551,8.812c1.039,2.559,2.871,4.774,5.502,6.637
		c2.633,1.873,6.127,3.287,10.477,4.255c4.357,0.968,9.852,1.456,16.488,1.456c6.646,0,12.182-0.488,16.604-1.456
		c4.42-0.968,7.916-2.382,10.475-4.255c2.559-1.862,4.391-4.078,5.492-6.637C480.346,101.691,480.908,98.747,480.908,95.429"/>
	<path fill="#FFFFFF" d="M576.135,23.946c0.531,0.546,0.791,1.232,0.791,2.055v12.233c0,0.816-0.26,1.503-0.791,2.055
		c-0.531,0.551-1.135,0.832-1.832,0.832h-18.266v17.481c0,0.703-0.293,1.316-0.885,1.837c-0.582,0.52-1.279,0.785-2.092,0.785
		h-12.15c-0.811,0-1.518-0.266-2.102-0.785c-0.582-0.521-0.873-1.134-0.873-1.837V41.121h-18.268c-0.707,0-1.311-0.281-1.842-0.832
		c-0.52-0.552-0.779-1.238-0.779-2.055V26.001c0-0.822,0.26-1.509,0.779-2.055c0.531-0.557,1.135-0.838,1.842-0.838h18.268V5.71
		c0-0.691,0.291-1.306,0.873-1.831c0.584-0.525,1.291-0.79,2.102-0.79h12.15c0.813,0,1.51,0.265,2.092,0.79
		c0.592,0.525,0.885,1.14,0.885,1.831v17.398h18.266C575,23.108,575.604,23.39,576.135,23.946"/>
</g>
</svg>
